<?xml version="1.0" encoding="utf-8"?>
<!-- Svg Vector Icons : http://www.onlinewebfonts.com/icon -->
<!DOCTYPE svg PUBLIC "-//W3C//DTD SVG 1.1//EN" "http://www.w3.org/Graphics/SVG/1.1/DTD/svg11.dtd">
<svg version="1.1" xmlns="http://www.w3.org/2000/svg" xmlns:xlink="http://www.w3.org/1999/xlink" x="0px" y="0px" viewBox="0 0 256 256" enable-background="new 0 0 256 256" xml:space="preserve">
<metadata> Svg Vector Icons : http://www.onlinewebfonts.com/icon </metadata>
<g><g><path fill="#000000" d="M128,10C62.8,10,10,62.8,10,128c0,65.2,52.8,118,118,118c65.2,0,118-52.8,118-118C246,62.8,193.2,10,128,10L128,10z M128,236.2c-59.7,0-108.2-48.4-108.2-108.2C19.8,68.3,68.3,19.8,128,19.8c59.7,0,108.2,48.4,108.2,108.2C236.2,187.7,187.7,236.2,128,236.2L128,236.2z"/><path fill="#000000" d="M146,135.7c13.6-6.6,23-20.3,23-36.2c0-22.3-18.3-40.3-41-40.3c-22.6,0-41,18-41,40.3c0,15.9,9.4,29.7,23,36.2c-25.2,7.6-43.5,30.6-43.5,57.8c0,1.9,1.5,3.3,3.4,3.3c1.9,0,3.4-1.5,3.4-3.3c0-29.7,24.5-53.7,54.6-53.7c30.2,0,54.6,24.1,54.6,53.7c0,1.9,1.5,3.3,3.4,3.3c1.9,0,3.4-1.5,3.4-3.3C189.5,166.2,171.2,143.2,146,135.7L146,135.7z M128,133c-0.4,0-0.7,0-1.1,0c-18.3-0.6-33.1-15.4-33.1-33.6c0-18.6,15.3-33.6,34.2-33.6c18.9,0,34.2,15.1,34.2,33.6c0,18.2-14.7,33-33.1,33.6C128.7,133,128.4,133,128,133L128,133z"/></g></g>
</svg>