<?xml version="1.0" encoding="utf-8"?>
<!-- Svg Vector Icons : http://www.onlinewebfonts.com/icon -->
<!DOCTYPE svg PUBLIC "-//W3C//DTD SVG 1.1//EN" "http://www.w3.org/Graphics/SVG/1.1/DTD/svg11.dtd">
<svg version="1.1" xmlns="http://www.w3.org/2000/svg" xmlns:xlink="http://www.w3.org/1999/xlink" x="0px" y="0px" viewBox="0 0 256 256" enable-background="new 0 0 256 256" xml:space="preserve">
<metadata> Svg Vector Icons : http://www.onlinewebfonts.com/icon </metadata>
<g><g><path fill="#000000" d="M183.2,96.5H79.2v-9.7V71.7C79.2,44.9,101.1,23,128,23c26.8,0,48.7,21.9,48.7,48.7v8.1l0,0c0,3.6,2.9,6.5,6.5,6.5c3.5,0,6.4-2.9,6.5-6.5l0,0V68.4c0-32.1-26.3-58.4-58.4-58.4h-6.5c-32.1,0-58.4,26.3-58.4,58.4v26v2.7c-21.9,3.2-39,22.2-39,44.9v58.4c0,25,20.4,45.5,45.5,45.5h110.4c25,0,45.5-20.4,45.5-45.5V142C228.6,117,208.2,96.5,183.2,96.5z M215.6,200.5c0,17.9-14.6,32.5-32.5,32.5H72.8c-17.9,0-32.5-14.6-32.5-32.5V142c0-17.9,14.6-32.5,32.5-32.5h110.4c17.9,0,32.5,14.6,32.5,32.5L215.6,200.5L215.6,200.5z"/><path fill="#000000" d="M128,136.7c-15.9,0-28.8,12.8-28.8,28.7c0,14.6,11,26.7,25.2,28.4v20c0,3,2.4,5.4,5.4,5.4c3,0,5.4-2.4,5.4-5.4v-20.3c12.4-3.2,21.6-14.6,21.6-28C156.8,149.5,143.8,136.7,128,136.7z M128,183.2c-9.9,0-18-8-18-17.9c0-9.9,8-17.9,18-17.9c9.9,0,18,8,18,17.9S137.9,183.2,128,183.2z"/></g></g>
</svg>